<svg width="79" height="75" viewBox="0 0 79 75" fill="none" xmlns="http://www.w3.org/2000/svg">
<g id="Group">
<path id="Vector" d="M22.4789 41.3426C22.2254 41.2066 22.3125 40.8297 22.6017 40.8103C30.4054 40.3206 37.4882 41.397 44.163 44.6028C45.8109 45.3955 46.7418 45.2751 47.9064 43.8101C51.0319 39.8971 53.8523 35.8286 55.833 31.2317C55.9756 30.9014 56.0192 30.4739 56.6451 30.369C57.3858 33.5282 56.8392 36.668 56.3796 39.7533C55.6428 44.6961 53.8048 49.2775 51.0834 53.5325C50.0059 55.2189 49.3087 55.5065 47.9342 53.7229C44.8642 49.736 40.0789 46.9305 35.2739 46.231C35.06 46.1999 34.9411 46.4641 35.1075 46.6002C36.185 47.4706 37.0287 48.1467 37.8646 48.8267C43.2598 53.2255 45.0622 59.6138 42.6221 65.6913C40.2809 71.5239 34.1726 75.402 27.9098 74.9668C22.8552 74.617 18.8543 71.9203 15.0673 69.0137C-3.70923 54.5933 -5.14718 27.0971 11.9379 10.7455C28.2941 -4.90661 55.6428 -3.24347 69.7926 14.3244C78.4203 25.0376 80.6347 37.0293 76.8278 50.1246C76.6971 50.5676 76.5506 51.0106 76.3723 51.438C76.0079 52.3084 75.3661 53.0079 74.3956 52.5843C73.4766 52.1802 74.1223 51.3292 74.3283 50.7502C76.7803 43.7635 76.9784 36.7457 75.2631 29.5374C71.8049 15.0277 57.2709 2.97387 42.0041 2.1967C22.9067 1.22913 6.97438 13.1353 2.9299 31.4065C-0.373818 46.3243 7.18037 62.7536 20.7597 70.1833C25.4895 72.7713 30.8214 72.2195 34.541 68.7611C38.7677 64.8286 39.6947 59.8936 37.1594 54.8498C34.339 49.2581 30.5679 45.722 22.4789 41.3426ZM52.4738 48.8617C52.4817 47.0237 51.0557 45.6481 49.182 45.6909C47.4786 45.7258 46.009 47.1247 45.9654 48.7529C45.9179 50.5404 47.3558 52.0092 49.1899 52.0442C51.0715 52.0753 52.4659 50.723 52.4738 48.8617Z" fill="#00C6D1"/>
<path id="Vector_2" d="M47.5131 34.6369C47.5012 37.6367 45.0492 40.1081 42.0228 40.1664C39.1271 40.2247 36.4215 37.5901 36.4215 34.7146C36.4255 31.7186 38.8894 29.2899 41.9475 29.2783C45.0611 29.2666 47.525 31.637 47.5131 34.6369Z" fill="#00C6D1"/>
<path id="Vector_3" d="M32.1592 19.5598C31.4422 18.2075 30.8123 17.0146 30.1785 15.8178C30.0557 15.8566 29.9369 15.8994 29.8141 15.9382C30.0716 17.0768 30.3924 18.2114 30.5667 19.3616C30.745 20.5352 30.1706 20.9237 29.0258 20.508C27.5957 19.9911 26.6688 18.9886 26.1538 17.6208C25.3101 15.3942 25.3378 13.0744 25.5794 10.7584C25.6547 10.0434 25.9716 9.17686 26.9144 9.81025C29.6715 11.6716 32.1869 13.7777 32.789 17.2788C32.8999 17.9588 32.9395 18.6777 32.1592 19.5598Z" fill="#30F77E"/>
<path id="Vector_4" d="M41.4366 18.9963C40.2482 18.6738 40.2086 17.7645 40.0898 16.9679C39.5867 13.5562 41.2346 10.8477 43.1321 8.23646C43.5361 7.6769 43.9085 7.63027 44.4314 8.20538C46.1743 10.1172 46.9349 15.7556 45.7029 17.9083C45.2236 18.7438 44.5938 19.6608 43.6233 19.5714C42.4586 19.4626 42.8508 18.2075 42.7478 17.4692C42.5814 16.2763 42.7042 15.0483 42.7042 13.323C41.4089 15.3553 42.2012 17.3371 41.4366 18.9963Z" fill="#30F77E"/>
<path id="Vector_5" d="M25.0641 25.7733C23.4004 25.0622 22.8141 23.3485 20.6829 22.6957C21.705 23.9664 22.414 24.798 23.0597 25.6723C23.3687 26.0919 23.7926 26.5932 23.4677 27.1411C23.0993 27.7706 22.4022 27.7084 21.7723 27.6463C19.5183 27.417 18.0645 26.0647 17.0306 24.2384C16.1235 22.6335 14.4756 20.4186 15.5095 19.2218C16.6464 17.9006 18.9875 19.4316 20.6592 20.1116C23.0597 21.087 24.9096 22.6569 25.0641 25.7733Z" fill="#30F77E"/>
<path id="Vector_6" d="M53.8034 21.3746C52.3417 22.5675 51.7 24.2074 50.7334 26.1891C49.8857 24.3239 50.1155 22.9056 50.8721 21.5611C52.1674 19.2685 54.2313 17.7491 56.5011 16.4707C57.127 16.117 57.7925 15.9772 57.8598 16.9408C58.0579 19.8008 58.1054 22.6647 56.2238 25.1128C55.8158 25.6451 55.1859 26.0337 54.5997 26.4029C53.9975 26.7837 53.1934 27.0906 52.6071 26.6749C51.9297 26.1969 52.3694 25.3887 52.5715 24.7553C52.9438 23.6167 53.3915 22.5015 53.8034 21.3746Z" fill="#30F77E"/>
<path id="Vector_7" d="M19.1502 37.3958C16.9992 36.7663 15.5533 35.9231 13.2994 35.9153C14.979 36.7002 16.1713 37.2365 17.3438 37.8155C17.7558 38.0175 18.2708 38.2546 18.2827 38.7675C18.2946 39.432 17.6528 39.5874 17.1616 39.7934C14.6819 40.8348 12.7052 39.7079 10.9305 38.2235C9.88869 37.3531 8.11403 36.335 8.53393 35.0837C8.96175 33.8014 11.0058 34.1317 12.3645 34.0074C15.0661 33.7626 17.4587 34.3454 19.1502 37.3958Z" fill="#30F77E"/>
<path id="Vector_8" d="M60.4307 29.9778C61.3735 26.5777 65.8221 23.8343 68.8564 24.5648C69.3753 24.6892 69.6645 24.8796 69.6804 25.4663C69.7319 27.8289 66.2023 31.8158 63.8216 32.0062C63.1323 32.0606 62.2569 32.251 61.833 31.6448C61.2983 30.8832 62.2133 30.4363 62.6094 29.9273C63.1284 29.2667 63.7384 28.676 64.6178 27.724C62.7204 27.996 61.9796 29.6397 60.4307 29.9778Z" fill="#30F77E"/>
<path id="Vector_9" d="M31.4025 35.6899C30.3013 35.1614 29.6318 34.8389 28.9544 34.5125C28.5939 35.142 29.1485 35.2197 29.3664 35.4645C29.8418 36.0047 31.0698 36.2728 30.6142 37.1393C30.1468 38.0253 29.0059 37.9204 28.0711 37.6756C25.6467 37.0383 24.49 35.0993 23.3571 33.1602C23.1194 32.7561 23.3373 32.453 23.7334 32.2354C25.6349 31.1862 30.3448 33.0436 31.4025 35.6899Z" fill="#30F77E"/>
<path id="Vector_10" d="M38.3465 27.4869C37.4789 26.5155 38.1246 25.3653 37.5027 24.4948C37.0036 24.93 37.269 25.4896 37.1818 25.9714C37.063 26.6204 37.3561 27.5957 36.5045 27.7473C35.5221 27.9221 34.9279 26.9934 34.6743 26.2357C33.9217 23.978 34.5 21.8447 35.6488 19.8318C35.9895 19.2334 36.3658 19.179 36.9521 19.6492C39.0278 21.3162 39.7646 25.0039 38.3465 27.4869Z" fill="#30F77E"/>
<path id="Vector_11" d="M25.136 47.0016C24.1575 47.565 22.8028 46.92 21.856 47.8798C22.6166 48.3849 23.4247 47.872 24.1615 48.0818C24.6527 48.2217 25.3776 47.9808 25.5281 48.688C25.6549 49.2826 25.1518 49.6595 24.7359 50.0131C23.2504 51.2915 18.4691 51.0428 17.1698 49.6478C16.8331 49.2864 16.8886 49.0416 17.154 48.6647C18.4453 46.8267 22.6126 45.4706 24.5933 46.2905C24.8785 46.4109 25.1756 46.5625 25.136 47.0016Z" fill="#30F77E"/>
<path id="Vector_12" d="M63.0335 41.0601C61.7224 40.4812 60.6766 41.2428 59.5793 41.0873C60.629 39.3659 61.8729 38.9191 64.7686 39.4631C65.8698 39.669 67.597 39.5524 67.8386 40.6677C68.0763 41.7751 66.468 42.3736 65.5569 43.0575C64.313 43.9901 62.8394 44.2621 61.2985 44.0561C60.5855 43.959 59.7853 43.7258 59.6704 42.9448C59.5476 42.1404 60.4508 42.0977 60.9697 41.8373C61.5679 41.5459 62.2294 41.3594 63.0335 41.0601Z" fill="#30F77E"/>
</g>
</svg>
