<svg width="63" height="60" viewBox="0 0 63 60" fill="none" xmlns="http://www.w3.org/2000/svg">
<g id="Group">
<path id="Vector" d="M17.9831 33.0741C17.7803 32.9653 17.85 32.6637 18.0814 32.6482C24.3244 32.2565 29.9906 33.1176 35.3304 35.6823C36.6487 36.3164 37.3935 36.2201 38.3251 35.0481C40.8255 31.9177 43.0819 28.6629 44.6664 24.9853C44.7805 24.7211 44.8153 24.3791 45.316 24.2952C45.9086 26.8226 45.4713 29.3344 45.1037 31.8026C44.5143 35.7569 43.0438 39.422 40.8667 42.826C40.0047 44.1751 39.447 44.4052 38.3473 42.9783C35.8913 39.7888 32.0631 37.5444 28.2191 36.9848C28.048 36.9599 27.9529 37.1713 28.086 37.2801C28.948 37.9765 29.623 38.5174 30.2916 39.0614C34.6079 42.5804 36.0498 47.6911 34.0977 52.553C32.2248 57.2191 27.3381 60.3216 22.3279 59.9734C18.2842 59.6936 15.0834 57.5362 12.0538 55.2109C-2.96738 43.6747 -4.11774 21.6777 9.55031 8.59643C22.6353 -3.92529 44.5143 -2.59478 55.8341 11.4595C62.7362 20.0301 64.5077 29.6235 61.4623 40.0997C61.3577 40.4541 61.2404 40.8085 61.0978 41.1504C60.8063 41.8468 60.2929 42.4063 59.5165 42.0675C58.7813 41.7442 59.2978 41.0634 59.4626 40.6002C61.4242 35.0108 61.5827 29.3965 60.2105 23.63C57.4439 12.0222 45.8167 2.37909 33.6033 1.75736C18.3254 0.9833 5.57951 10.5083 2.34392 25.1252C-0.299054 37.0594 5.7443 50.2029 16.6077 56.1466C20.3916 58.217 24.6571 57.7756 27.6328 55.0089C31.0142 51.8629 31.7557 47.9149 29.7276 43.8798C27.4712 39.4064 24.4543 36.5776 17.9831 33.0741ZM41.979 39.0894C41.9854 37.619 40.8445 36.5185 39.3456 36.5527C37.9829 36.5807 36.8072 37.6998 36.7723 39.0023C36.7343 40.4323 37.8847 41.6074 39.3519 41.6354C40.8572 41.6602 41.9727 40.5784 41.979 39.0894Z" fill="#E1E4E9"/>
<path id="Vector_2" d="M38.0105 27.7095C38.001 30.1093 36.0393 32.0865 33.6182 32.1331C31.3016 32.1797 29.1372 30.072 29.1372 27.7716C29.1403 25.3748 31.1115 23.4319 33.558 23.4226C36.0488 23.4133 38.02 25.3096 38.0105 27.7095Z" fill="#E1E4E9"/>
<path id="Vector_3" d="M25.7273 15.6477C25.1538 14.5659 24.6499 13.6116 24.1428 12.6541C24.0446 12.6852 23.9495 12.7194 23.8513 12.7505C24.0573 13.6613 24.314 14.569 24.4534 15.4892C24.596 16.428 24.1365 16.7389 23.2206 16.4063C22.0766 15.9928 21.3351 15.1908 20.9231 14.0965C20.2481 12.3152 20.2703 10.4594 20.4636 8.6066C20.5238 8.03461 20.7773 7.34138 21.5315 7.84809C23.7372 9.33714 25.7495 11.022 26.2312 13.8229C26.32 14.367 26.3516 14.9421 25.7273 15.6477Z" fill="#E1E4E9"/>
<path id="Vector_4" d="M33.1493 15.197C32.1986 14.939 32.1669 14.2116 32.0718 13.5743C31.6693 10.8449 32.9877 8.67817 34.5056 6.58915C34.8289 6.1415 35.1268 6.1042 35.5451 6.56428C36.9395 8.09374 37.5479 12.6044 36.5623 14.3266C36.1789 14.995 35.675 15.7286 34.8986 15.6571C33.9669 15.5701 34.2806 14.566 34.1982 13.9753C34.0651 13.021 34.1634 12.0386 34.1634 10.6584C33.1271 12.2842 33.7609 13.8696 33.1493 15.197Z" fill="#E1E4E9"/>
<path id="Vector_5" d="M20.0513 20.6186C18.7203 20.0497 18.2513 18.6788 16.5464 18.1565C17.364 19.1731 17.9312 19.8383 18.4478 20.5378C18.695 20.8735 19.0341 21.2745 18.7742 21.7128C18.4795 22.2164 17.9217 22.1667 17.4179 22.117C15.6147 21.9336 14.4516 20.8517 13.6245 19.3907C12.8988 18.1068 11.5805 16.3348 12.4076 15.3774C13.3171 14.3204 15.19 15.5452 16.5274 16.0893C18.4478 16.8695 19.9277 18.1254 20.0513 20.6186Z" fill="#E1E4E9"/>
<path id="Vector_6" d="M43.0427 17.0996C41.8734 18.054 41.36 19.3658 40.5867 20.9512C39.9086 19.4591 40.0924 18.3244 40.6977 17.2488C41.7339 15.4147 43.385 14.1992 45.2009 13.1765C45.7016 12.8936 46.234 12.7817 46.2878 13.5526C46.4463 15.8406 46.4843 18.1317 44.979 20.0901C44.6526 20.516 44.1487 20.8269 43.6797 21.1222C43.198 21.4269 42.5547 21.6725 42.0857 21.3398C41.5438 20.9575 41.8956 20.3109 42.0572 19.8041C42.3551 18.8933 42.7132 18.0011 43.0427 17.0996Z" fill="#E1E4E9"/>
<path id="Vector_7" d="M15.3201 29.9165C13.5994 29.4129 12.4427 28.7384 10.6395 28.7321C11.9831 29.3601 12.937 29.7891 13.8751 30.2523C14.2046 30.4139 14.6166 30.6036 14.6261 31.0139C14.6356 31.5455 14.1222 31.6698 13.7293 31.8346C11.7455 32.6677 10.1641 31.7662 8.74439 30.5787C7.91093 29.8823 6.49121 29.0679 6.82712 28.0669C7.16938 27.041 8.8046 27.3053 9.89158 27.2058C12.0529 27.0099 13.967 27.4762 15.3201 29.9165Z" fill="#E1E4E9"/>
<path id="Vector_8" d="M48.3446 23.9821C49.0988 21.262 52.6576 19.0673 55.0851 19.6518C55.5003 19.7512 55.7316 19.9036 55.7443 20.373C55.7855 22.263 52.9618 25.4525 51.0573 25.6048C50.5058 25.6484 49.8055 25.8007 49.4664 25.3157C49.0386 24.7064 49.7706 24.3489 50.0875 23.9417C50.5027 23.4132 50.9907 22.9407 51.6942 22.1791C50.1763 22.3967 49.5837 23.7117 48.3446 23.9821Z" fill="#E1E4E9"/>
<path id="Vector_9" d="M25.122 28.5519C24.241 28.1291 23.7055 27.8711 23.1636 27.61C22.8752 28.1136 23.3188 28.1757 23.4931 28.3716C23.8734 28.8037 24.8558 29.0182 24.4914 29.7114C24.1174 30.4202 23.2048 30.3363 22.4569 30.1404C20.5174 29.6306 19.5921 28.0794 18.6857 26.5281C18.4956 26.2048 18.6699 25.9624 18.9868 25.7883C20.5079 24.9489 24.2759 26.4349 25.122 28.5519Z" fill="#E1E4E9"/>
<path id="Vector_10" d="M30.6771 21.9895C29.9831 21.2123 30.4997 20.2922 30.0021 19.5958C29.6028 19.944 29.8152 20.3916 29.7454 20.7771C29.6504 21.2963 29.8849 22.0765 29.2035 22.1978C28.4176 22.3377 27.9423 21.5947 27.7395 20.9885C27.1373 19.1824 27.6 17.4757 28.519 15.8654C28.7916 15.3867 29.0926 15.3432 29.5616 15.7193C31.2222 17.0529 31.8117 20.0031 30.6771 21.9895Z" fill="#E1E4E9"/>
<path id="Vector_11" d="M20.1088 37.6013C19.326 38.0521 18.2422 37.536 17.4848 38.3039C18.0933 38.708 18.7397 38.2977 19.3292 38.4655C19.7221 38.5774 20.3021 38.3847 20.4225 38.9505C20.5239 39.4261 20.1214 39.7276 19.7887 40.0105C18.6003 41.0333 14.7753 40.8343 13.7358 39.7183C13.4665 39.4292 13.5108 39.2334 13.7232 38.9318C14.7563 37.4614 18.0901 36.3765 19.6746 37.0324C19.9028 37.1288 20.1405 37.25 20.1088 37.6013Z" fill="#E1E4E9"/>
<path id="Vector_12" d="M50.4268 32.8481C49.3779 32.3849 48.5413 32.9942 47.6634 32.8699C48.5032 31.4928 49.4983 31.1353 51.8149 31.5705C52.6959 31.7352 54.0776 31.642 54.2709 32.5342C54.461 33.4201 53.1744 33.8989 52.4455 34.446C51.4504 35.1921 50.2716 35.4097 49.0388 35.2449C48.4684 35.1672 47.8282 34.9807 47.7363 34.3558C47.6381 33.7123 48.3606 33.6781 48.7758 33.4699C49.2543 33.2367 49.7835 33.0875 50.4268 32.8481Z" fill="#E1E4E9"/>
</g>
</svg>
